<svg xmlns="http://www.w3.org/2000/svg" viewBox="0 0 200 200" width="200" height="200">
  <!-- Lotus with Medical Caduceus - Outline Style for Transparency -->
  
  <!-- Bottom Petals -->
  <path d="M 60 145 Q 40 130 38 110 Q 38 95 48 88 L 70 105 Q 65 125 60 145 Z" 
        fill="none" stroke="currentColor" stroke-width="3.5" stroke-linejoin="round"/>
  
  <path d="M 140 145 Q 160 130 162 110 Q 162 95 152 88 L 130 105 Q 135 125 140 145 Z" 
        fill="none" stroke="currentColor" stroke-width="3.5" stroke-linejoin="round"/>
  
  <!-- Side Petals -->
  <path d="M 50 105 Q 30 95 22 75 Q 20 60 28 50 L 55 70 Q 55 90 50 105 Z" 
        fill="none" stroke="currentColor" stroke-width="3.5" stroke-linejoin="round"/>
  
  <path d="M 150 105 Q 170 95 178 75 Q 180 60 172 50 L 145 70 Q 145 90 150 105 Z" 
        fill="none" stroke="currentColor" stroke-width="3.5" stroke-linejoin="round"/>
  
  <!-- Middle Petals -->
  <path d="M 70 95 Q 55 75 50 50 Q 50 35 60 25 L 80 55 Q 78 80 70 95 Z" 
        fill="none" stroke="currentColor" stroke-width="3.5" stroke-linejoin="round"/>
  
  <path d="M 130 95 Q 145 75 150 50 Q 150 35 140 25 L 120 55 Q 122 80 130 95 Z" 
        fill="none" stroke="currentColor" stroke-width="3.5" stroke-linejoin="round"/>
  
  <!-- Top Petals -->
  <path d="M 85 85 Q 75 60 72 35 Q 72 20 80 12 L 92 45 Q 90 70 85 85 Z" 
        fill="none" stroke="currentColor" stroke-width="3.5" stroke-linejoin="round"/>
  
  <path d="M 100 80 Q 98 50 98 25 Q 98 10 100 5 Q 102 10 102 25 Q 102 50 100 80 Z" 
        fill="none" stroke="currentColor" stroke-width="3.5" stroke-linejoin="round"/>
  
  <path d="M 115 85 Q 125 60 128 35 Q 128 20 120 12 L 108 45 Q 110 70 115 85 Z" 
        fill="none" stroke="currentColor" stroke-width="3.5" stroke-linejoin="round"/>
  
  <!-- Medical Caduceus in Center -->
  <!-- Staff -->
  <line x1="100" y1="50" x2="100" y2="125" 
        stroke="currentColor" stroke-width="4" stroke-linecap="round"/>
  
  <!-- Top Circle -->
  <circle cx="100" cy="45" r="6" fill="currentColor"/>
  
  <!-- Left Snake -->
  <path d="M 94 60 Q 86 70 90 80 Q 94 90 90 100 Q 86 110 90 118" 
        fill="none" stroke="currentColor" stroke-width="3.5" stroke-linecap="round"/>
  
  <!-- Right Snake -->
  <path d="M 106 60 Q 114 70 110 80 Q 106 90 110 100 Q 114 110 110 118" 
        fill="none" stroke="currentColor" stroke-width="3.5" stroke-linecap="round"/>
  
  <!-- Snake Heads -->
  <circle cx="90" cy="58" r="3.5" fill="currentColor"/>
  <circle cx="110" cy="58" r="3.5" fill="currentColor"/>
</svg>
